<svg id="Layer_1" data-name="Layer 1" xmlns="http://www.w3.org/2000/svg" viewBox="0 0 135.83 67.67"><defs><style>.cls-1{fill:#3f1d6f;}.cls-1,.cls-2{fill-rule:evenodd;}.cls-2{fill:#12110c;}</style></defs><path class="cls-1" d="M66.67,16.5c.2-2.3,2.6-3,4.7-3.3a12.34,12.34,0,0,1,3.5.3c1,.1,1.1-1,1-1.8s-.9-1-1.7-1.2c-1-.3-2,.5-2.8.3s-.9-.7-1.6-1.4c-.9-.8-1.9-1-1.9-2.1s1.2-1.1,1.6-2c.2-.5.1-1,.3-1.2.4-.8,1.2-.7,1.8-1.3.9-.9,1.3-2.5,1.7-2.6s1.2,1.6,1.6,1.4S76,.1,76.57.2c.3,0,1.4,2.2,1.4,2.2,8.8.4,19.6,11,21,12.1a33.37,33.37,0,0,0,8.7,5.7,14.39,14.39,0,0,0,6.3,1.2c2.7-.2,5.6-2.5,7.4-5.7,2.3-4,3.3-10.9,9.8-14.8.9-.5,3-1.8,4.2-.2,1,1.3.2,3.3-.8,4.3a18.19,18.19,0,0,1-4,2.3c-.7.4-2,1.3-2.4,1.6-2.4,1.8-4.1,5.9-6,10.4,0,0-.8,2.2-4.4,4.6-.6.4-.1.7.6,1.6.9,1.1,2.5,5.7,2.3,12.6a5.58,5.58,0,0,0,1,2.8c1,1.7,2.9,1.4,2.8,3.6-.1,3.1,2.2,3.7,1.5,5.1a6.18,6.18,0,0,0-.3,3c0,.5.3,1.2-.8,1.2-4.3-.3-4-6-3.9-8a1,1,0,0,0-.2-.8c-.2-.2-2.9-2.2-3.1-2.4a28.2,28.2,0,0,1-6.6-9.3c-.8-2-1.6-4.1-3-5.3a8.22,8.22,0,0,0-5.2-2.2c-12-.1-14.4-5.3-17.7-7.9a3.33,3.33,0,0,0-.6-.3c-.2,0-.3.2-.4.3A5.3,5.3,0,0,1,80,19.6c-4,0-8.4-3.5-9.1-2.8s-.1,2-1.2,2.2a2.68,2.68,0,0,1-3-2.5" transform="translate(0 0.07)"/><path class="cls-2" d="M112.3,67.1a3.5,3.5,0,0,1-.1-7h.1a3.5,3.5,0,0,1,0,7m-.1-7.5a4,4,0,1,0,4,4,3.89,3.89,0,0,0-4-4" transform="translate(0 0.07)"/><path class="cls-2" d="M111.9,63.4h-.2V62.1h.2q.9,0,.9.6c0,.5-.3.7-.9.7Zm.8.6h0a1.38,1.38,0,0,0,1-1.3c0-.9-.7-1.4-1.9-1.4h-.9V66h.9V64.2l1.4,1.8h1.1Z" transform="translate(0 0.07)"/><path class="cls-1" d="M96.5,55.2H93.4V40.1a1.54,1.54,0,0,1,1.5-1.5,1.47,1.47,0,0,1,1.5,1.5V55.2Zm6-20.5H87.3a2.9,2.9,0,0,0-2.9,2.9V67.5h9V59.3h3.1v8.2h9V37.7a3,3,0,0,0-3-3ZM57.2,40.1a1.54,1.54,0,0,1,1.5-1.5,1.47,1.47,0,0,1,1.5,1.5V67.5h9V40.1a1.5,1.5,0,0,1,3,0V67.5h9V37.7a2.9,2.9,0,0,0-2.9-2.9H51.2a2.9,2.9,0,0,0-2.9,2.9V67.6h9V40.1ZM26.8,67.5H42.5a2.69,2.69,0,0,0,2.7-2.7V34.7h-9V62a1.5,1.5,0,0,1-3,0V34.7h-9V64.8a2.55,2.55,0,0,0,2.6,2.7M12.1,53.7a1.47,1.47,0,0,1-1.5,1.5H9V38.6h1.5A1.5,1.5,0,0,1,12,40.2V53.7Zm6.1-19H0V67.5H9V59.3h9.1a3,3,0,0,0,3-3V37.7a2.93,2.93,0,0,0-2.9-3Z" transform="translate(0 0.07)"/></svg>