<svg id="Layer_1" data-name="Layer 1" xmlns="http://www.w3.org/2000/svg" xmlns:xlink="http://www.w3.org/1999/xlink" viewBox="0 0 137.44 61.78"><defs><style>.cls-1{fill:#fff;}.cls-1,.cls-2,.cls-3{fill-rule:evenodd;}.cls-2{fill:#f2f1f8;}.cls-3{fill:#3f1d6f;}.cls-4{mask:url(#mask);}</style><mask id="mask" x="131.71" y="26.71" width="5.73" height="5.66" maskUnits="userSpaceOnUse"><g transform="translate(0 0)"><g id="client-1-logo-b"><polygon id="client-1-logo-a" class="cls-1" points="131.71 26.71 137.44 26.71 137.44 32.37 131.71 32.37 131.71 26.71"/></g></g></mask></defs><path class="cls-2" d="M118.21,50.35a9,9,0,0,1-6.64,2.74h0c-5.43,0-9.24-4.05-9.26-9.85a10.28,10.28,0,0,1,2.6-7.17,9,9,0,0,1,6.63-2.74h0c5.44,0,9.25,4.05,9.27,9.85a10.28,10.28,0,0,1-2.6,7.17Zm-81-9.09-.21.12-.15.19a9.63,9.63,0,0,0-1.66,7.64,10.93,10.93,0,0,1-1.51-5.69,10.44,10.44,0,0,1,2.64-7.28A9.15,9.15,0,0,1,43,33.47h.06a7.22,7.22,0,0,1,5.12,1.62ZM129.39,60.2l-.12-30.55v-.53l-.38-.38a13,13,0,0,0-6.36-3.15l-1.48-.23v2.43a18.33,18.33,0,0,0-9.52-2.67h-.07A18,18,0,0,0,98.88,30.2,17.49,17.49,0,0,0,95,35.85l0-6.07v-.45L94.69,29a8.65,8.65,0,0,0-3.88-2.71,22.14,22.14,0,0,0,12.31-4.79c7.88-6.68,9.51-19.31,9.57-19.85l.2-1.63-1.63.21C110.73.28,98.1,2,91.46,9.88a18.48,18.48,0,0,0-2,3c-3.67-7.11-13.55-10.83-14-11l-1.57-.57-.14,1.66c0,.44-.86,10.63,4.23,17.21a17.6,17.6,0,0,0,8.73,5.79l-.14.35a2.93,2.93,0,0,0-1.66-.56H82.16l-7.93,0h-1.4L73,27.13a8.87,8.87,0,0,0,4.6,6.12L72,48.65l-7-18.27h0v0c-1.8-4.31-7.85-4.53-9-4.53h-.14l-1.8.05.64,1.68L55.8,30.4a17,17,0,0,0-12.75-5.21H43A18.07,18.07,0,0,0,24.82,43.55a18.54,18.54,0,0,0,2.37,9.05h-.67l-14.92.06L27.66,32.87A7.25,7.25,0,0,0,29.1,28c0-3.91-3.16-6.24-8.41-6.24h-.06l-17.06.07H1.85l.5,1.65c.07.22,1.72,5.48,5.5,7.31l.27.12h.29l9.09,0L4,47.55c-2.49,3.15-4,5.22-4,8.07,0,3.8,2.65,6.16,6.87,6.16h0l21.35-.08h1.66l-.43-1.6-1.73-6.54v0A18,18,0,0,0,43,61.76h.08c8.49,0,15.35-6.4,16.83-12.29l.08-.32-.08-.32a8.44,8.44,0,0,0-5.63-5.54L53,43l-.27,1.33c-1.3,6.52-4.1,9.18-9.66,9.2h0a9.06,9.06,0,0,1-6.8-2.83l.82-.46L58.73,38l7.46,19.47C67.47,61,69.43,61.65,72,61.65H72c2.64,0,4.53-.72,5.81-4.19l9-23.73.08,22.66v.17l0,.17c.88,3.17,5.27,4.88,6.88,4.88h1.28V60.32l0-9.69A17.8,17.8,0,0,0,111.53,61.3h.07a18.35,18.35,0,0,0,10.65-3.46c1.15,1.3,3.32,3.36,5.71,3.63l1.43.17Z" transform="translate(0 0)"/><path class="cls-3" d="M93.7,29.78l.11,30.55c-1.2,0-5-1.53-5.66-3.95L88,27a8,8,0,0,1,5.66,2.79ZM87,29.6,76.63,57C75.55,60,74.13,60.36,72,60.37s-3.54-.39-4.64-3.31l-11.47-30s6.34-.16,8,3.74l8.18,21.5,7.27-20.2H78.21c-3.14-1.35-4-5-4-5.12l7.93,0v0l2.7,0A2.55,2.55,0,0,1,87,29.6ZM58.7,49.16c-1.4,5.54-7.92,11.29-15.6,11.32a16.73,16.73,0,0,1-17-16.94A16.73,16.73,0,0,1,43,26.47c7.62,0,12.74,4,15.44,10.29l-22,12.32s-.92-3.87,1.38-6.7l12.47-7A8.39,8.39,0,0,0,43,32.19c-6.18,0-10.65,4.66-10.63,11.33S36.9,54.79,43.08,54.76c7.07,0,9.7-4.24,10.91-10.23a7.15,7.15,0,0,1,4.71,4.63ZM26.52,53.88l1.74,6.54L6.91,60.5c-3.43,0-5.62-1.7-5.63-4.89,0-2.41,1.31-4.21,3.71-7.26L20.19,29.6l-11.78,0C5.08,28,3.58,23.12,3.58,23.12l17-.07c4.67,0,7.18,1.92,7.19,5a6.08,6.08,0,0,1-1.15,4.05L8.91,53.94Zm85.05.49c-6.1,0-10.55-4.54-10.58-11.12s4.39-11.18,10.5-11.2,10.58,4.54,10.6,11.12-4.4,11.17-10.52,11.2Zm10.77-27.51v3.41a16.9,16.9,0,0,0-10.88-3.87A16.53,16.53,0,0,0,94.8,43.27,16.55,16.55,0,0,0,111.6,60a17,17,0,0,0,10.85-4s2.79,3.8,5.66,4.13L128,29.65a11.57,11.57,0,0,0-5.65-2.79Zm-34.82-6.2A25.05,25.05,0,0,1,89,15C86.32,7.22,75,3.05,75,3.05s-.88,10.05,4,16.3a16.57,16.57,0,0,0,8.33,5.43V22.94C86.64,18.31,79.84,9.2,79.84,9.2c3.75,2.67,7.07,10,7.68,11.46m23.9-19.19s-1.54,12.6-9.13,19C97,25,90.1,25.12,88.36,25.08c5.29-14.41,12.56-17.35,13.29-17.62C94.21,9.81,89.16,19.76,88,22.23A20.78,20.78,0,0,1,92.44,10.7c6.4-7.64,19-9.23,19-9.23" transform="translate(0 0)"/><g class="cls-4"><path class="cls-3" d="M134.56,29.45c.31,0,.53-.16.53-.44a.44.44,0,0,0-.48-.42h-.56v.86Zm.64.4.74,1.19h-.73L134.58,30h-.53V31h-.66v-3h1.3a1,1,0,0,1,1.05,1,.9.9,0,0,1-.54.84Zm1.69-.31a2.33,2.33,0,1,0-4.65,0,2.33,2.33,0,1,0,4.65,0Zm.55,0a2.87,2.87,0,0,1-5.73,0,2.87,2.87,0,0,1,5.73,0Z" transform="translate(0 0)"/></g></svg>