<svg data-name="Layer 1" xmlns="http://www.w3.org/2000/svg" xmlns:xlink="http://www.w3.org/1999/xlink" viewBox="0 0 60 60"><defs><linearGradient id="a" x1="13.94" y1="29.93" x2="52.58" y2="29.93" gradientUnits="userSpaceOnUse"><stop offset="0" stop-color="#a60bff"/><stop offset="1" stop-color="#683cff"/></linearGradient><linearGradient id="b" x1="23.24" y1="35.33" x2="36.74" y2="35.33" xlink:href="#a"/></defs><path d="M51.29 19.88a2.39 2.39 0 00-2.2-1.5h-31.6a2.32 2.32 0 00-2.4 2.4V39c0 1.12.6 2.13 2.4 2.4 1.5.22 23.64 0 25.2 0a2.23 2.23 0 002.4-2.4v-8.58a5.31 5.31 0 011.78-4l3.92-3.91a2.71 2.71 0 00.5-2.63z" stroke="url(#a)" fill="none" stroke-linecap="round" stroke-linejoin="round" stroke-width="2.3"/><path d="M24.39 34.88a19.9 19.9 0 005.6.9 19.9 19.9 0 005.6-.9" stroke="url(#b)" fill="none" stroke-linecap="round" stroke-linejoin="round" stroke-width="2.3"/></svg>