<svg data-name="Layer 1" xmlns="http://www.w3.org/2000/svg" xmlns:xlink="http://www.w3.org/1999/xlink" viewBox="0 0 60 60"><defs><linearGradient id="a" x1="24.96" y1="55.06" x2="39.89" y2="42.53" gradientTransform="matrix(1 0 0 -1 0 77.2)" gradientUnits="userSpaceOnUse"><stop offset="0" stop-color="#a60bff"/><stop offset="1" stop-color="#683cff"/></linearGradient><linearGradient id="b" x1="13.74" y1="40.21" x2="25.15" y2="30.64" xlink:href="#a"/><linearGradient id="c" x1="32.78" y1="55.82" x2="39.93" y2="49.82" xlink:href="#a"/></defs><path d="M25.4 41.07l-5.7-5.7a3.73 3.73 0 010-5.19l14.5-14.5a3.74 3.74 0 015.2 0l5.7 5.69a3.74 3.74 0 010 5.2l-14.5 14.5a3.57 3.57 0 01-5.2 0z" stroke="url(#a)" fill="none" stroke-linecap="round" stroke-linejoin="round" stroke-width="2.3"/><path d="M18.7 33.37l-2.7 2.7s-.1 5.7-2 8.61l1.9 1.89c2.9-2.3 8.9-1.7 8.9-1.7l2.6-2.6" stroke="url(#b)" fill="none" stroke-linecap="round" stroke-linejoin="round" stroke-width="2.3"/><path stroke="url(#c)" fill="none" stroke-linecap="round" stroke-linejoin="round" stroke-width="2.3" d="M38.86 26.84l-5.03-4.95"/></svg>