<svg data-name="Layer 1" xmlns="http://www.w3.org/2000/svg" viewBox="0 0 60 60"><defs><linearGradient id="a" x1="27.4" y1="30.65" x2="33.68" y2="30.65" gradientUnits="userSpaceOnUse"><stop offset="0" stop-color="#a60bff"/><stop offset="1" stop-color="#683cff"/></linearGradient><linearGradient id="b" x1="21.2" y1="-252.03" x2="35.22" y2="-266.06" gradientTransform="matrix(1 0 0 -1 0 -218.66)" gradientUnits="userSpaceOnUse"><stop offset="0" stop-color="#8f0bff"/><stop offset="1" stop-color="#683cff"/></linearGradient><linearGradient id="c" x1="16.93" y1="-239.39" x2="22.58" y2="-245.05" gradientTransform="matrix(1 0 0 -1 0 -218.66)" gradientUnits="userSpaceOnUse"><stop offset="0" stop-color="#b406ff"/><stop offset="1" stop-color="#8625ff"/></linearGradient><linearGradient id="d" x1="32.04" y1="-237.02" x2="47.16" y2="-252.13" gradientTransform="matrix(1 0 0 -1 0 -218.66)" gradientUnits="userSpaceOnUse"><stop offset="0" stop-color="#a60bff"/><stop offset="1" stop-color="#633cff"/></linearGradient></defs><path d="M33.37 30.06l-4.92-3.12a.72.72 0 00-.71 0 .69.69 0 00-.37.61v6.24a.69.69 0 00.37.61.72.72 0 00.71 0l4.92-3.12a.69.69 0 000-1.18z" fill="url(#a)"/><path d="M39.5 41.55a14.74 14.74 0 01-10.1 4 15 15 0 01-12.3-6.5" stroke="url(#b)" fill="none" stroke-linecap="round" stroke-linejoin="round" stroke-width="2.2"/><path stroke="#8c0bff" fill="none" stroke-linecap="round" stroke-linejoin="round" stroke-width="2.2" d="M16.4 43.15l-.1-4.8H21"/><path d="M14.7 32.75a15.55 15.55 0 011.1-7.9 14.62 14.62 0 0110.9-8.6" stroke="url(#c)" fill="none" stroke-linecap="round" stroke-linejoin="round" stroke-width="2.2"/><path stroke="#a31cff" fill="none" stroke-linecap="round" stroke-linejoin="round" stroke-width="2.2" d="M23.5 13.85l4.2 2.1-2 4.1"/><path d="M34.9 17.05a15.42 15.42 0 016.3 4.8 14.52 14.52 0 012.2 13.7" stroke="url(#d)" fill="none" stroke-linecap="round" stroke-linejoin="round" stroke-width="2.2"/><path stroke="#683cff" fill="none" stroke-linecap="round" stroke-linejoin="round" stroke-width="2.2" d="M47.1 33.95l-3.9 2.7-2.6-3.8"/></svg>