<svg xmlns="http://www.w3.org/2000/svg" xmlns:xlink="http://www.w3.org/1999/xlink" width="150" height="150" viewBox="0 0 150 150">
  <defs>
    <circle id="drag-cta-b" cx="42" cy="42" r="42"/>
    <filter id="drag-cta-a" width="235.7%" height="235.7%" x="-67.9%" y="-53.6%" filterUnits="objectBoundingBox">
      <feOffset dy="12" in="SourceAlpha" result="shadowOffsetOuter1"/>
      <feGaussianBlur in="shadowOffsetOuter1" result="shadowBlurOuter1" stdDeviation="17"/>
      <feColorMatrix in="shadowBlurOuter1" values="0 0 0 0 0.124974811   0 0 0 0 0.0496044381   0 0 0 0 0.229138361  0 0 0 0.0926300262 0"/>
    </filter>
    <linearGradient id="drag-cta-c" x1="0%" x2="100%" y1="11.667%" y2="92.267%">
      <stop offset="0%" stop-color="#6042FF"/>
      <stop offset="100%" stop-color="#B601FF"/>
    </linearGradient>
  </defs>
  <g fill="none" fill-rule="evenodd" transform="translate(33 21)">
    <use fill="#000" filter="url(#drag-cta-a)" xlink:href="#drag-cta-b"/>
    <use fill="#FFF" xlink:href="#drag-cta-b"/>
    <g stroke="url(#drag-cta-c)" stroke-linecap="round" stroke-linejoin="round" stroke-width=".936" transform="rotate(-90 44 7.5)">
      <path d="M6.23192226,6.83474937 C4.21792706,8.2057082 6.27728972,10.4029769 6.27728972,10.4029769 L8.00704069,12.6619503 C8.36951539,13.1352451 8.93893394,13.3993283 9.53077788,13.3686586 C10.1225701,13.3379367 10.6621743,13.0162694 10.9746311,12.5080278 L18.4482755,2.78738517 C18.9116644,2.03352473 18.7694131,1.04838931 18.1121016,0.459509188 C17.4547383,-0.129423093 16.4688485,-0.155085539 15.7823426,0.398899914 C15.7823426,0.398899914 8.68388403,5.16564717 6.23192226,6.83474937 Z"/>
      <path d="M12.487583,6.83474937 C14.5015729,8.2057082 12.442164,10.4029769 12.442164,10.4029769 L10.7124177,12.6619503 C10.3499956,13.1352451 9.78052687,13.3993283 9.18873617,13.3686586 C8.59689381,13.3379367 8.05729106,13.0162694 7.74488676,12.5080278 L0.271210502,2.78738517 C-0.192177165,2.03352473 -0.0499262452,1.04838931 0.60743525,0.459509188 C1.26479675,-0.129423093 2.2506323,-0.155085539 2.93713638,0.398899914 C2.93713638,0.398899914 10.0356278,5.16564717 12.487583,6.83474937 Z"/>
    </g>
  </g>
</svg>
