<svg xmlns="http://www.w3.org/2000/svg" width="100%" height="100%" viewBox="0 0 1666 650"><defs><linearGradient id="ecwoa" x1="325.44" x2="548.74" y1="155.74" y2="-7.62" gradientUnits="userSpaceOnUse"><stop offset="0" stop-color="#6042ff"/><stop offset="1" stop-color="#b601ff" stop-opacity=".18"/></linearGradient><linearGradient id="ecwob" x1="-12.7" x2="232.53" y1="536.65" y2="338.77" gradientUnits="userSpaceOnUse"><stop offset="0" stop-color="#6042ff"/><stop offset="1" stop-color="#b601ff" stop-opacity=".18"/></linearGradient><linearGradient id="ecwoc" x1="1395.76" x2="1651.35" y1="667.12" y2="463.49" gradientUnits="userSpaceOnUse"><stop offset="0" stop-color="#6042ff"/><stop offset="1" stop-color="#b601ff" stop-opacity=".18"/></linearGradient><linearGradient id="ecwod" x1="1155.44" x2="1378.74" y1="291.71" y2="116.85" gradientUnits="userSpaceOnUse"><stop offset="0" stop-color="#6042ff"/><stop offset="1" stop-color="#b601ff" stop-opacity=".18"/></linearGradient></defs><g><g><g opacity=".17"><path fill="url(#ecwoa)" d="M345.016.114C421.153 13.829 464.94 18 554.672 25.548c3.534.297 6.328 3.105 6.328 6.623v103.191c0 3.664-3.008 6.765-6.705 6.634-68.513-2.432-130.002-5.001-211.446-15.377-3.345-.426-5.849-3.243-5.849-6.58V6.62c0-4.184 3.837-7.258 8.016-6.505z"/></g><g opacity=".16"><path fill="url(#ecwob)" d="M9.22 348.151c88.704 17.636 121.457 24.9 229.502 36.642 4.044.44 7.278 3.599 7.278 7.678v119.834c0 4.247-3.469 7.942-7.712 7.69C146.222 514.513 104.623 508.2 6.727 494.8 2.89 494.276 0 491.04 0 487.174V355.693c0-4.851 4.449-8.49 9.22-7.542z"/></g><g opacity=".11"><path fill="url(#ecwoc)" d="M1655.794 473.837c-96.604 17.659-156 27.777-239.22 37.051-4.208.47-7.574 4.692-7.574 8.952v122.103c0 4.435 3.612 8.323 8.025 8.03 93.22-6.185 147.37-14.504 240.975-30.692 3.95-.683 7-4.926 7-8.964l.388-133.605c0-5.066-4.599-3.788-9.594-2.875z"/></g><g opacity=".17"><path fill="url(#ecwod)" d="M1382.605 125.12c-88.536 16.128-122.496 23.804-208.978 28.801-3.717.215-6.627 3.271-6.627 6.979v109.105c0 3.86 3.15 7.138 7.022 6.99 63.84-2.436 150.487-9.376 210.853-18.576 3.481-.53 6.125-3.417 6.125-6.933v-119.51c0-4.41-4.022-7.652-8.395-6.855z"/></g></g></g></svg>