<svg version="1.1" id="Capa_1" xmlns="http://www.w3.org/2000/svg" x="0" y="0" viewBox="0 0 1113.2 214" xml:space="preserve"><style>.st0{fill:#683cff}</style><path class="st0" d="M371 116.4l-.2-.2v.2l-76.7.4c4.1 13.9 17.3 21.7 41.2 21.7 11.5 0 20.8-2.4 30.1-5.9v20.8c-9.8 4.5-20.6 7.6-35.5 7.6-37.9 0-61.8-20.8-61.8-55.5 0-33 21.9-53.6 53.3-53.6 32.5 0 50.3 22.8 50.3 50.3.1 2.8-.1 9.5-.7 14.2zm-77.2-19.2h53.6c-.4-12.8-9.8-23.4-26-23.4-15 .1-24.6 9.9-27.6 23.4zM487.8 54.4l-44.4 103.9h-27.1L372 54.4h30l28.2 75.9h.4l29.3-75.9h27.9zM590.7 116.4l-.2-.2v.2l-76.7.4c4.1 13.9 17.3 21.7 41.2 21.7 11.5 0 20.8-2.4 30.1-5.9v20.8c-9.8 4.5-20.6 7.6-35.5 7.6-37.9 0-61.8-20.8-61.8-55.5 0-33 21.9-53.6 53.3-53.6 32.5 0 50.3 22.8 50.3 50.3 0 2.8-.2 9.5-.7 14.2zm-77.3-19.2H567c-.4-12.8-9.8-23.4-26-23.4-14.9.1-24.6 9.9-27.6 23.4zM674.1 51v26.9c-1.9-.6-3.3-.7-5.9-.7-15 0-30.6 7.6-30.6 29.7v51.4h-29V54.4h26v13.7c9.4-13 24.8-17.1 39.5-17.1zM799.1 106.9c0 32.1-22.3 54-51.6 54-14.5 0-25.8-5.4-33-13.6v44.4h-29V54.4h26V70c6.7-10.8 19.5-18.2 35.6-18.2 28.8 0 52 22.8 52 55.1zm-27-.2c0-18.2-12.4-31.4-28.4-31.4-16.3 0-29.9 12.4-30.1 31.6 0 21.2 16.5 30.4 30.3 30.4 16.4 0 28.2-12.6 28.2-30.6zM809.7 105.4c0-31.9 23.9-53.6 56.8-53.6s56.8 21.7 56.8 53.6c0 32.9-23.9 55.5-56.8 55.5s-56.8-22.6-56.8-55.5zm86.8.2c0-17.6-13-30.1-30.1-30.1-17.3 0-30.1 12.4-30.1 30.1 0 18.2 12.8 31.6 30.1 31.6 17.1 0 30.1-13.4 30.1-31.6zM936.3 152.6V129c11.1 5.9 24.7 9.7 39.2 9.7 13.4 0 21.9-3.2 21.9-10 0-4.1-3-7.4-16.7-9.7l-9.8-1.7c-19.7-3.2-35.6-11.1-35.6-32.3 0-23.8 18.2-33.2 46.8-33.2 10 0 22.5 1.7 36.4 5.9v23.8c-11.1-4.1-23.2-6.9-36.2-6.9-11.5 0-20.2 2-20.2 9.1 0 4.8 3.9 7.6 17.3 10l8.9 1.5c16.9 3 36.2 9.7 36.2 31.6 0 22.3-18 34.2-47.3 34.2-16.3-.1-30-3.4-40.9-8.4zM1076 78.5v34c0 16.7 6.9 25.6 21 25.6 4.8 0 11-1.1 16.1-2.8v21.9c-8.2 2-17.3 3.7-25.4 3.7-27.5 0-40.7-15.6-40.7-41.6V78.5h-17.6V56.4h20.4l6.5-21.5h19.7v21.5h37.1v22.1H1076z"/><linearGradient id="SVGID_1_" gradientUnits="userSpaceOnUse" x1="-5.881" y1="-7.083" x2="274.96" y2="276.234"><stop offset="0" stop-color="#b700ff"/><stop offset=".774" stop-color="#6042ff"/></linearGradient><path d="M168.8 106c.8-8.9-.7-18.1-4.6-26.7-1.6-3.5-3.6-7-6-10.2-38.7-52-117-21-115.5 38.6-.1.3.2 4.5.3 4.9v.2c.2 1.8.4 3.5.7 5.3 5.5 30.1 33.2 53.3 64.7 53.3H214c0 23.5-19.1 42.6-42.6 42.6h-62.8C53.4 214 6 171.4.5 117.5c-.3-2.8-.4-5.5-.5-8.3V107v-2.3C1.2 44.8 51.6-2 110.8.1 170.2 2.5 214 52.1 214 108.6v27.2h-59.8c8.7-7.8 13.6-18.5 14.6-29.8z" fill="url(#SVGID_1_)"/><linearGradient id="SVGID_2_" gradientUnits="userSpaceOnUse" x1="60.04" y1="159.844" x2="201.568" y2="5.212"><stop offset="0" stop-color="#b700ff"/><stop offset="1" stop-color="#6042ff"/></linearGradient><path d="M135.8 107.7c0 15.5-12.6 28.1-28.1 28.1-16.6 0-29.8-14.3-27.9-31.3 1.4-12.9 11.8-23.3 24.7-24.7 16.9-1.8 31.3 11.4 31.3 27.9z" fill="url(#SVGID_2_)"/><path fill="none" d="M213.9 107l.1 28.9h-48.3"/><radialGradient id="SVGID_3_" cx="109.511" cy="-28.09" r="159.948" gradientUnits="userSpaceOnUse"><stop offset="0"/><stop offset="1" stop-opacity="0"/></radialGradient><path d="M42.6 107.7c-.1.3.2 4.5.3 4.9v.2c.2 1.8.4 3.5.7 5.3 5.5 30.1 33.2 53.3 64.7 53.3H139c-14.7 12.5-33.8 20-54.6 20-45.9 0-83.2-36.6-84.4-82.2V107v-2.3c1.2-45.6 38.5-82.1 84.4-82.1 36.9 0 68.3 23.7 79.8 56.7-1.6-3.5-3.6-7-6-10.2C119.4 17 41.1 48 42.6 107.7z" opacity=".5" fill="url(#SVGID_3_)"/></svg>