<svg enable-background="new 0 0 45 46" viewBox="0 0 45 46" xmlns="http://www.w3.org/2000/svg" xmlns:xlink="http://www.w3.org/1999/xlink"><linearGradient id="a" gradientUnits="userSpaceOnUse" x1="-.5603" x2="56.8672" y1="-.1999" y2="57.7336"><stop offset="0" stop-color="#d500ff"/><stop offset=".7744" stop-color="#6a40ff"/></linearGradient><linearGradient id="b" gradientUnits="userSpaceOnUse" x1="12.9196" x2="41.8596" y1="33.9339" y2="2.3142"><stop offset="0" stop-color="#d500ff"/><stop offset="1" stop-color="#6a40ff"/></linearGradient><radialGradient id="c" cx="23.0356" cy="-4.4954" gradientUnits="userSpaceOnUse" r="32.7067"><stop offset="0"/><stop offset="1" stop-opacity="0"/></radialGradient><path d="m35.2 22.9c.2-1.8-.1-3.7-.9-5.5-.3-.7-.7-1.4-1.2-2.1-8-10.6-24.1-4.2-23.8 8 0 .1 0 .9.1 1 0 .4.1.7.1 1.1 1.1 6.2 6.8 10.9 13.2 10.9h21.6c0 4.8-3.9 8.7-8.7 8.7h-12.8c-11.3 0-21-8.7-22.1-19.7-.1-.6-.1-1.1-.1-1.7 0-.1 0-.3 0-.4 0-.2 0-.3 0-.5.3-12.3 10.6-21.9 22.7-21.4s21.1 10.6 21.1 22.2v5.5h-12.2c1.7-1.6 2.7-3.8 3-6.1z" fill="url(#a)"/><path d="m28.4 23.3c0 3.2-2.6 5.7-5.7 5.7-3.4 0-6.1-2.9-5.7-6.4.3-2.6 2.4-4.8 5-5.1 3.5-.3 6.4 2.4 6.4 5.8z" fill="url(#b)"/><path d="m44.4 23.1v5.9h-9.9" fill="none"/><path d="m9.3 23.3c0 .1 0 .9.1 1 0 .4.1.7.1 1.1 1.1 6.2 6.8 10.9 13.2 10.9h6.3c-3 2.6-6.9 4.1-11.2 4.1-9.4 0-17-7.5-17.3-16.8 0-.1 0-.3 0-.4 0-.2 0-.3 0-.5.4-9.4 8-16.8 17.4-16.8 7.5 0 14 4.8 16.3 11.6-.3-.7-.7-1.4-1.2-2.1-7.9-10.7-24-4.3-23.7 7.9z" fill="url(#c)" opacity=".5"/></svg>