<?xml version="1.0" standalone="no"?>
<!DOCTYPE svg PUBLIC "-//W3C//DTD SVG 20010904//EN"
 "http://www.w3.org/TR/2001/REC-SVG-20010904/DTD/svg10.dtd">
<svg version="1.0" xmlns="http://www.w3.org/2000/svg"
 width="180.000000pt" height="180.000000pt" viewBox="0 0 180.000000 180.000000"
 preserveAspectRatio="xMidYMid meet">
<metadata>
Created by potrace 1.11, written by Peter Selinger 2001-2013
</metadata>
<g transform="translate(0.000000,180.000000) scale(0.100000,-0.100000)"
fill="#000000" stroke="none">
<path d="M770 1780 c-81 -13 -211 -56 -282 -94 -297 -162 -475 -452 -479 -783
-4 -368 234 -705 598 -844 122 -46 198 -53 583 -53 301 1 318 2 372 23 71 27
155 102 186 164 23 47 50 152 41 161 -3 3 -217 6 -476 6 -442 1 -476 2 -545
21 -93 26 -158 61 -227 124 -250 228 -232 621 40 820 179 132 425 143 605 27
115 -75 199 -192 225 -313 24 -112 -9 -258 -77 -337 l-36 -42 29 -1 c155 -3
452 -1 459 4 16 10 8 305 -11 399 -55 271 -224 496 -465 622 -70 36 -168 74
-202 77 -4 0 -22 5 -40 10 -46 13 -232 19 -298 9z"/>
<path d="M837 1116 c-129 -46 -195 -194 -140 -317 82 -184 337 -185 423 -2 18
39 21 60 17 108 -5 69 -21 106 -68 153 -59 60 -157 84 -232 58z"/>
</g>
</svg>
